<?xml version="1.0" encoding="UTF-8"?><svg id="Layer_2" xmlns="http://www.w3.org/2000/svg" viewBox="0 0 300.82 300.82"><defs><style>.cls-1{stroke-width:0px;}</style></defs><g id="Layer_1-2"><path class="cls-1" d="M250.71.12l-93.41-.09c-209.74,0-209.74,300.79,0,300.79l143.51-.35v-109.26h-138.72c-54.07,0-54.07-81.57,0-81.57l138.72-.22V.03l-31.46-.03-9.94,6.25c-1.72-1.66-3.84-.42-4.32-.12-1.89,1.17-2.73,2.52-1.83,3.96,2.49,4.01,18.21-9.44,24.92,1.4,3.73,6.02,1.54,13.01-8.56,19.24-6.31,3.89-14.51,6.13-19.01-.17l10.41-6.43c1.83,1.11,3.74.95,5.12.03,1.65-1.08,3.13-2.7,1.87-4.74-2.87-4.63-17.45,9.47-24.41-1.73-4.58-7.39,1.4-14.05,7.12-17.58ZM93.31,138.39l-10.14,6.26-2.58-2.03c-.84,4.01-2.31,6.19-6.84,8.99-5.99,3.7-12.28,2.24-17.42-6.04l-10.93-17.6,10.94-6.74,9.69,15.61c2.47,3.98,4.57,4.43,7.19,2.81,3.15-1.95,2.61-5.05-.17-9.51l-8.62-13.9,10.94-6.74,17.94,28.9h0ZM80.31,106.43l10.03-6.19,2.63,2.08c-.01-4.78,5.02-8.36,8.05-9.62,3.21-1.49,6.99-1.08,9.81,1.07.38-9.05,6.81-11.64,8.65-12.46,7.22-3.18,11.64.41,15.99,7.4l10.61,17.1-10.94,6.75-9.13-14.74c-2.49-4-4.39-5.54-7.37-3.69-3.21,1.98-2.02,5.3.13,8.77l8.87,14.29-10.94,6.75-9.15-14.73c-2.64-4.26-4.27-5.59-7.37-3.69-3.21,1.97-2.02,5.28.13,8.76l8.87,14.29-10.94,6.74-17.94-28.9h0ZM204.27,69.91l-17.94-28.91,10.94-6.74,17.94,28.91-10.94,6.74h0ZM178.97,29.13l10.94-6.74,5.07,8.17-10.94,6.75-5.07-8.18ZM203.09,30.66l9.99-6.16,3.21,2.16c.44-5.3,3.85-8.22,7.94-9.97,6.4-2.73,11.61-.04,16.02,7.06l10.75,17.32-10.94,6.74-9.48-15.29c-1.82-2.93-4.06-4.98-7.19-3.04-3.36,2.08-2.85,4.89-.56,8.59l9.14,14.73-10.94,6.75-17.93-28.9h0ZM45.92,167.6c-29.46,18.18-56.11-24.24-26.64-42.43l13.38-8.17,6.89,11.11-11.75,7.2c-14.66,9.01-1.13,28.93,12.6,20.32l11.76-7.2,6.89,11.11-13.14,8.06ZM132.87,74l10.03-6.19,2.63,2.08c0-4.78,5.03-8.36,8.05-9.62,3.22-1.48,6.99-1.07,9.81,1.07.38-9.05,6.81-11.64,8.64-12.46,7.22-3.18,11.65.4,15.99,7.4l10.61,17.1-10.94,6.74-9.13-14.73c-2.48-4-4.38-5.54-7.38-3.69-3.21,1.98-2.02,5.29.13,8.77l8.87,14.29-10.94,6.74-9.14-14.73c-2.64-4.24-4.27-5.58-7.38-3.69-3.21,1.98-2.02,5.29.13,8.77l8.87,14.29-10.91,6.74-17.94-28.9h0Z"/></g></svg>