<?xml version="1.0" encoding="UTF-8"?><svg id="Layer_2" xmlns="http://www.w3.org/2000/svg" viewBox="0 0 231.13 200"><defs><style>.cls-1{fill:#231f20;}.cls-1,.cls-2{fill-rule:evenodd;stroke-width:0px;}.cls-2{fill:#d3403f;}</style></defs><g id="Layer_1-2"><path class="cls-2" d="M220.76,43.06C201.49,16.78,173.16,4.22,142.79.43c-5.55-.29-12.85-1.75-16.35,3.21-.88,1.75.58,3.5,2.04,4.67,18.11,5.55,35.92,11.68,50.52,25.11,5.26,6.42,11.39,13.14,8.76,21.61-5.55,8.47-16.65,6.42-25.99,7.88l-52.57,1.46-51.4-.88c-5.55-.58-11.39-1.75-14.89-6.42-2.34-4.67,0-9.93,2.04-13.73,13.43-19.86,35.34-27.74,55.78-34.46,1.46-.88,2.92-2.63,2.34-4.38-1.17-3.21-4.67-4.09-7.89-4.09-17.81.88-33.88,5.55-48.77,13.14C21.89,26.42-2.93,50.95.28,81.02c6.13,37.38,45.56,60.16,79.14,66.29,7.59.58,16.65,3.5,23.65-.58.88-.88,1.75-2.34,1.17-3.8-.58-1.17-1.75-2.04-2.92-2.63-17.52-5.26-34.46-11.68-48.77-24.53-5.55-6.13-11.1-12.56-9.64-21.03.88-2.34,2.92-4.38,4.96-5.55,10.51-3.8,22.78-2.63,34.17-3.5l41.76-1.17,35.92.58c9.93,1.46,22.49-2.04,28.33,7.3,2.04,4.67-.29,9.64-2.63,13.73-13.43,19.57-34.75,27.16-54.9,33.88-2.04.58-3.21,2.63-2.92,4.67,3.8,6.13,12.85,2.92,18.98,2.63,33-4.96,68.33-23.95,81.77-57.53,5.84-15.48,2.04-34.17-7.59-46.72h0ZM54.01,66.42l28.62,1.17,63.08-.58c14.89-.88,30.96-.58,44.97-4.96,1.46-.88,3.5-2.63,5.26-.88,1.17.58,2.34,1.46,3.5,2.34-.88,1.75-3.21,1.46-4.96,2.04l-20.15,2.04-40.3.88-58.11.58c-13.73,0-26.87-.29-40.3-1.75-1.46-.58-3.5-.29-4.09-2.04,1.46-1.17,3.5-2.63,5.55-2.92,4.96,2.92,11.1,3.21,16.94,4.09h0ZM225.73,76.94v.29l-.88-.88c-1.17-14.02-6.42-26.87-17.23-36.8-.29,0-1.17-.29-1.17.58,7.3,10.81,12.56,22.78,11.97,36.8-1.75,31.83-35.04,54.61-62.49,62.79-5.84,1.46-11.97,3.5-18.4,3.8,5.55-2.04,11.1-3.21,16.65-5.55,22.78-7.3,49.65-24.53,56.65-49.94.58-2.92,1.17-6.72-1.17-9.05-4.09-4.38-10.22-4.38-16.35-4.38h-46.43l-55.19.88-44.97.29c-8.76,1.75-21.9-2.34-26.57,7.59-.88,12.27,6.72,21.32,14.31,30.37,16.94,16.94,38.26,24.24,59.87,30.08l-.58.58c-33.29-5.26-72.13-23.65-80.31-59.87-2.92-15.48,2.04-30.08,10.51-42.05,0-.29-.29-.58-.58-.88-2.92,1.17-4.67,4.38-6.72,6.72-5.84,9.64-10.22,19.86-10.81,31.25h-.58c-2.34-25.41,17.23-46.14,37.67-58.7,15.19-9.05,31.83-15.19,49.94-16.06.29,0,.29.29.29.29-14.6,4.09-28.62,8.76-41.47,16.94-14.89,8.76-28.62,23.65-32.12,40.3,0,2.34.58,4.38,2.34,5.84,5.26,4.38,13.14,3.8,19.86,4.09l32.42.29,91.4-.88c12.27-.58,25.11-.58,37.09-2.34,3.21-.88,7.3-2.92,8.18-6.72.29-7.88-4.38-14.31-8.18-20.44-16.94-22.49-41.47-31.54-66.29-37.38-.29-.88.29-.29.58-.58,21.61.88,40.59,8.18,57.82,19.86,18.11,12.56,32.42,30.95,30.95,52.86h0Z"/><path class="cls-1" d="M91.38,197.36c0,.36-.24.6-.6.6h-13.2c-.36,0-.72-.24-.72-.6v-26.16c0-.36.36-.6.72-.6h13.2c.36,0,.6.24.6.6v26.16h0ZM64.15,170.6h-13.32c-.36,0-.6.24-.6.6v5.04c0,1.44-1.2,2.64-2.64,2.64h-13.32c-1.44,0-2.64-1.2-2.64-2.64h0v-5.04c0-.36-.24-.6-.6-.6h-13.2c-.36,0-.72.24-.72.6v26.16c0,.36.36.6.72.6h13.2c.36,0,.6-.24.6-.6v-6h0c0-1.44,1.2-2.64,2.64-2.64h13.32c1.44,0,2.64,1.2,2.64,2.64v6c0,.36.24.6.6.6h13.32c.36,0,.6-.24.6-.6v-26.16c0-.36-.24-.6-.6-.6h0ZM152.22,170.6h-13.2c-.36,0-.72.24-.72.6v8.52c-1.2,1.32-4.08-.24-4.08-.24,0,0-2.76-1.8-9.12-5.28-5.52-3.24-7.2-3.6-7.56-3.6h-13.2c-.36,0-.72.24-.72.6v26.16c0,.36.36.6.72.6h13.2c.36,0,.72-.24.72-.6v-11.04c1.68-2.28,4.08-1.08,4.08-1.08,0,0,2.88,1.44,9,5.28,5.28,3.36,6.6,4.56,6.96,5.76v1.08c0,.36.36.6.72.6h13.2c.36,0,.6-.24.6-.6v-26.16c0-.36-.24-.6-.6-.6h0ZM200.94,169.88h-24.36c-7.2,0-13.08,4.56-13.08,11.64v6.84c0,7.2,5.88,11.64,13.08,11.64h24.36c7.2,0,13.08-4.44,13.08-11.64v-6.84c0-7.08-5.88-11.64-13.08-11.64h0ZM200.22,186.68c0,3.6-2.64,5.88-5.88,5.88h-11.04c-3.36,0-6-2.28-6-5.88v-3.48c0-3.6,2.64-5.88,6-5.88h11.04c3.24,0,5.88,2.28,5.88,5.88v3.48h0Z"/></g></svg>