<?xml version="1.0" encoding="UTF-8"?><svg id="Layer_2" xmlns="http://www.w3.org/2000/svg" viewBox="0 0 180.41 200"><defs><style>.cls-1{fill:#cc7131;}.cls-1,.cls-2,.cls-3{fill-rule:evenodd;stroke-width:0px;}.cls-2{fill:#fff;}</style></defs><g id="Layer_1-2"><path class="cls-3" d="M90.03,200L8.41,118.38C3.2,112.88.02,106.8.02,100.72c-.29-6.66,2.6-13.02,8.39-18.81L90.03,0l81.91,81.91c5.79,5.79,8.97,12.16,8.39,18.81,0,6.08-3.19,12.16-8.39,17.66l-81.91,81.62Z"/><path class="cls-2" d="M12.18,114.91c-4.63-4.63-7.24-9.55-7.24-14.47v-.58c0-4.92,2.31-9.84,7.24-14.47,0,0,62.23-62.52,77.86-78.15,6.66,6.37,78.44,78.15,78.44,78.15,4.63,4.63,6.95,9.55,6.95,14.47v.58c0,4.92-2.6,9.84-6.95,14.47,0,0-62.52,62.52-78.44,78.15-6.37-6.37-77.86-78.15-77.86-78.15h0Z"/><path class="cls-3" d="M159.5,112.88l-69.46,69.46L20.86,112.88h138.64,0ZM163.84,108.54l-2.32,2.6H18.83l-2.32-2.6h147.32ZM81.64,81.62l-63.68,8.39L90.03,17.66l72.07,72.36-63.39-8.39c-1.45-.29-4.92-.58-8.68-.58-3.47,0-6.95.29-8.39.58h0Z"/><path class="cls-1" d="M81.35,115.77l-3.76,39.65-39.65-39.65h43.42ZM37.07,85.09l48.05-6.08,4.34-46.31-52.39,52.39ZM142.42,115.77l-39.65,39.65-3.76-39.65h43.42ZM90.9,32.71l4.63,46.31,47.76,6.08-52.39-52.39h0Z"/><path class="cls-3" d="M145.61,92.33l-4.34-.58-2.6,12.74h2.89s.29-2.02.29-2.32h3.19l.29,2.32h2.89l-2.61-12.16ZM142.42,99.86c0-.58.87-4.92.87-5.5.29.58,1.16,4.92,1.16,5.5h-2.03ZM22.89,93.78v10.71h2.9v-11l-2.9.29ZM31.86,92.91h-2.32v11.58h2.9v-5.5l2.89,5.5h2.03v-12.45l-2.6.58v5.5l-2.89-5.21h0ZM42.57,94.36v10.13h2.9v-10.42l2.03-.29v-2.6l-7.24.58v2.9l2.32-.29h0ZM53.57,98.7h3.76v-3.18l-3.76.58v-2.89l3.76-.29v-2.89l-6.66.58v13.89h6.95v-2.89h-4.05v-2.9h0ZM76.14,96.67l3.18,7.81h2.32v-17.37l-2.6.29v8.68l-3.18-8.1h-2.6v16.5h2.89v-7.81h0ZM99.59,90.88v13.6h3.18v-13.31l2.9.29v-3.47l-9.26-1.16v3.76l3.18.29h0ZM108.85,104.49h2.89v-15.92l-2.89-.29v16.21h0ZM121.87,89.73l-3.18-.29c-2.03-.29-2.9.87-2.9,3.18v8.68c0,2.02.87,3.18,2.9,3.18h2.89c2.32,0,3.18-1.16,3.18-3.18v-8.1c0-1.74-.87-3.18-2.89-3.47h0ZM121.87,101.59h-3.47v-8.97l3.47.29v8.68h0ZM133.16,97.25q-.87-2.03-3.19-6.66l-2.02-.29v14.18h2.89v-6.08c.87,1.45,3.47,6.08,3.47,6.08h2.02v-13.02l-3.18-.29v6.08h0ZM153.13,93.2l-2.89-.29v11.58h7.23v-2.6h-4.34v-8.68h0ZM92.06,86.54l3.47,17.95h-2.89l-.58-2.89h-3.76l-.29,2.89h-3.18l3.47-17.95h3.76ZM90.03,90.59l-1.16,7.81h2.61l-1.45-7.81ZM67.17,104.49h3.18l-2.89-6.37c1.45-.58,2.03-1.74,2.03-3.47v-2.89c0-2.03-.87-3.18-2.89-2.89l-5.21.58v15.05h2.6v-6.66l3.18,6.65h0ZM66.88,95.22l-2.89.29v-3.18l2.89-.29v3.18ZM110.69,184.34c1.24,0,2.46.32,3.64.96,1.18.64,2.11,1.55,2.77,2.74s.99,2.43.99,3.72-.32,2.5-.98,3.68c-.63,1.16-1.58,2.11-2.74,2.74-1.18.65-2.4.98-3.69.98-1.29,0-2.56-.34-3.69-.98-1.16-.63-2.11-1.59-2.74-2.74-.66-1.18-.98-2.4-.98-3.68s.33-2.53,1-3.72c.64-1.16,1.6-2.12,2.78-2.74,1.18-.64,2.4-.96,3.64-.96h0ZM110.69,185.57c-1.04,0-2.05.27-3.04.8-.97.52-1.78,1.32-2.31,2.29-.54.94-.83,2.01-.84,3.1,0,1.07.28,2.09.82,3.07.55.98,1.31,1.74,2.29,2.29s2.01.82,3.07.82,2.09-.28,3.07-.82c.96-.53,1.76-1.32,2.29-2.29.55-.98.82-2,.82-3.07s-.28-2.11-.83-3.1c-.55-.99-1.32-1.75-2.31-2.29s-2-.8-3.04-.8h0ZM107.44,195.85v-7.97h2.74c.94,0,1.61.07,2.03.22.42.15.75.41,1,.77.25.37.37.76.37,1.17,0,.58-.21,1.09-.62,1.52-.42.43-.97.67-1.66.73.28.12.51.26.68.42.32.32.71.84,1.18,1.58l.97,1.56h-1.57l-.71-1.26c-.56-.99-1-1.61-1.34-1.85-.24-.19-.58-.28-1.03-.28h-.76v3.39h-1.29s0,0,0,0ZM108.72,191.36h1.56c.74,0,1.25-.11,1.53-.34.27-.21.42-.54.41-.88,0-.23-.07-.45-.2-.63-.14-.19-.33-.33-.55-.42-.23-.1-.66-.14-1.29-.14h-1.46v2.41h0Z"/></g></svg>