<?xml version="1.0" encoding="UTF-8"?><svg id="Layer_2" xmlns="http://www.w3.org/2000/svg" viewBox="0 0 407.4 200"><defs><style>.cls-1{fill:#231f20;stroke-width:0px;}</style></defs><g id="Layer_1-2"><path class="cls-1" d="M91.02,162.2h-26.05l-1.9.94-16.25,21.45h-1.44l-16.25-21.45-1.9-.94H1.18l-1.18,1.18v35.09l1.18,1.18h20.21l1.18-1.18v-16.85l.72-.24,13.12,17.32,1.91.94h15.57l1.9-.94,13.13-17.32.71.24v16.85l1.19,1.18h20.2l1.18-1.18v-35.09l-1.18-1.18ZM154.94,182.18h-18.32l-.46-.93,5.62-7.42,1.91-.93h4.2l1.9.93,5.63,7.42-.47.93ZM164.17,163.13l-1.9-.93h-33.08l-1.9.93-26.94,35.55.47.93h21.69l1.9-.94,3.68-4.85,1.9-.95h31.49l1.9.95,3.68,4.85,1.89.94h21.69l.47-.93M272,162.2h-68.99l-1.91.94-2.81,3.71-.71,2.13v23.9l.71,2.13,2.81,3.71,1.91.93h68.99l1.19-1.18v-10.18l-1.19-1.18h-50.8l-1.18-1.19v-9.97l1.18-1.18h50.8l1.19-1.19v-10.18l-1.19-1.18ZM337.08,176.81l.12-1.3,24.18-12.75-.13-.56h-29.78l-2.23.56-22.39,11.81-1.06-.64v-10.54l-1.17-1.19h-20.21l-1.19,1.19v35.08l1.19,1.19h20.21l1.17-1.19v-5.2l1.06-1.75,12.06-6.37,1.96.21,16.55,13.53,2.1.76h24.28l.27-.76"/><path class="cls-1" d="M373.54,192.79v-2h3l1,1-1,1.01h-3ZM378.66,191.79c0-1.17-.95-2.11-2.11-2.11h-4.13v6.3h1.13v-2.07h2.3l1.59,2.07h1.41l-1.68-2.2c.85-.28,1.5-1.04,1.5-1.99"/><path class="cls-1" d="M375.25,198.89c-3.35,0-6.07-2.73-6.07-6.07s2.72-6.07,6.07-6.07,6.08,2.72,6.08,6.07-2.73,6.07-6.08,6.07M375.25,185.64c-3.96,0-7.18,3.22-7.18,7.19s3.21,7.18,7.18,7.18,7.19-3.22,7.19-7.18-3.21-7.19-7.19-7.19"/><path class="cls-1" d="M330.52,47.92h15.1l.99-.71,2.81-8.6.99-.71h11.56l1.45.29,3.69,1.54,1.24-.22,9.84-9.03-.13-.79-10.98-4.61-.81-1.03-1.53-9.78.57-.45,10.97,4.6.57-.45-1.78-11.29.4-1.28,2.41-2.53-.13-.91-3.12-1.82-1.34-.12-14.92,5.4-1.41-.03-4.4-1.85-.92.42-.57,1.79.35,1.17,2.2,1.77.06,1.01-1.47,1.48-1.22.24-4.53-1.9-.46-1.01,1.98-6.08-.45-1.01-2.82-1.18-.92.42-2.74,8.36-.04,1.44,1.75,6.67-.04,1.44-6.09,18.63-.99.72h-3.29l-.88.74-1.54,8.54.62.74Z"/><path class="cls-1" d="M362.44,40.88h-9.87l-.99.71-1.83,5.61.51.72h13.26l.64-.75-.87-5.54-.86-.74Z"/><path class="cls-1" d="M379.68,10.42l.77.38,3.29-1.82.17-.94-2.69-3.29-1-.04-.72.75-.41,1.28"/><path class="cls-1" d="M380.4,15.03l.74,4.72.81,1.03,8.12,3.41.97,1,.83,2.13,1.03.66,1.9-.11.98-.76,2.66-8.1-.37-1.17-4.33-3.25-.68-1.19-.52-5.05-.73-.39-10.85,6-.54,1.1Z"/><path class="cls-1" d="M406.99,15.93l-9.62-5.59-.57.37.17,1.69.67,1.2,4.77,3.66.36,1.17-3.98,12.2-.99.76-12.97.77-1.14.69-6.38,10.36.3.92,2.9,1.22.45,1-2.74,8.29-.93.42-7.62-3.19-1.44-.29h-2.61l-.64.74,2.49,15.85.77,1.11,10.93,6.16-.09.41-9.56.55-1.06.73-9.25,20.97-.48,1.41-9.99,42.59.24,1.34,2.03,3.04-.33.62h-2.14l-1.17-.62-1.61-2.4-.27-1.36,8.69-42.58-.2-1.41-4.2-8.17.14-1.24,13.77-15.91.37-1.31-3.11-19.77-.86-.75h-29.59l-.75.76v1l-.54,1.26-48.2,44.68-1.29.51h-6.3l-1.3.5-3.23,3.01-.16,1.16,5.94,10.29.13,1.37-11.17,32.09.13,1.36,1.13,1.93,1.13.66h21.99l.89-.74.48-2.48-.3-1.34-4.63-6.36.28-.81,27.75-8.37.17-.74-8.29-8.11-1.18-.14-23.99,14.38-1.01,1.05-4.32,7.96-1.1.66h-1.82l-.45-.68,9.39-21.42,1.04-.8,20.25-3.29.86-.86,3.43-21.22-.44-1.24-4.23-3.74-.42-1.23.49-2.49.7-.24,7.43,6.57.69,1.24,5.23,31.25.47.07,7.53-14.63,1.09-.53,9.07,1.63,1.04-.55,2.93-7,.16-1.43-6.14-36.63.34-.14,13.58,17.57.16,1.28-5.08,12.14.02,1.38,4.68,10.17.17,1.42-6.7,34.49.23,1.39,1.14,1.93,1.12.66h21.74l.98-.72.82-2.53-.24-1.3-8.23-10.26-.15-1.26,10.02-20.93.42-1.43,1.91-15.45.56-1.34,14.9-18.61.46-1.33-.41-16.1-.47-1.36-1.29-1.77-.22-1.31,2.83-8.66-.14-1.37-1.7-3,.32-.94,18.32-8.1.92-1.01,5.34-16.33-.41-1.1Z"/></g></svg>