<svg id="Layer_2" xmlns="http://www.w3.org/2000/svg" xmlns:xlink="http://www.w3.org/1999/xlink" viewBox="0 0 416.2 46.4"><defs><linearGradient id="linear-gradient" x1="128.2" y1=".6" x2="128.2" y2="45.8" gradientUnits="userSpaceOnUse"><stop offset="0" stop-color="#8b0100"/><stop offset=".5" stop-color="#ef0000"/><stop offset="1" stop-color="#8b0100"/></linearGradient><linearGradient id="linear-gradient-2" x1="60.5" y1=".6" x2="60.6" y2="45.8" xlink:href="#linear-gradient"/><clipPath id="clippath"><path class="cls-5" d="M131.5 10h23.9V.6h-24a13.7 13.7 0 0 0-12.9 18c1.8 5.4 7 9.3 13 9.3h11c2.4 0 4.3 2 4.3 4.3s-2 4.3-4.3 4.3h-42.2v9.3h42.2a13.7 13.7 0 0 0 13-18c-1.8-5.3-7-9.2-13-9.2h-11c-2.4 0-4.3-2-4.3-4.3s2-4.3 4.3-4.3"/></clipPath><clipPath id="clippath-1"><path class="cls-5" d="M50 .6 9 45.8h6.4L56.4.6h-6.3m10.5 0-41 45.2h8.1L68.8.6h-8.2ZM74.4 28H63.7l-8.4 9.3h19v8.6h9.4V.6H73.1L56.9 18.4 32 45.8h11.3l12.3-13.5 18.9-20.7v16.3ZM4.8 46 45.8.5h-4.7L0 45.8h4.8Zm91.7 0V28h24.6a17.2 17.2 0 0 1-6.2-9.3H96.5V10H115c0-.4.2-.8.3-1.1 1.1-3.4 3.2-6.2 5.9-8.3h-34v45.2h9.4Z"/></clipPath><style>.cls-5{clip-rule:evenodd;fill:none}</style></defs><g id="Layer_1-2"><g style="clip-path:url(#clippath)"><path style="fill:url(#linear-gradient)" d="M100.2.6h55.9v45.2h-55.9z"/></g><g style="clip-path:url(#clippath-1)"><path style="fill:url(#linear-gradient-2)" d="M0 .6h121.1v45.2H0z"/></g><path d="m196.9 6.4 4 8.3h-9.1l4-8.3h1Zm9 18.4h8.5L202.6 1H190l-11.8 23.8h8.6l2.3-4h14.5l2.2 4Zm30.4-6.2h-12V7h12c1.6 0 2.7.4 3.2 1.3.6.8.9 2.3.9 4.5s-.3 3.7-.9 4.5c-.5.8-1.6 1.2-3.2 1.2ZM217 1v23.7h20.5c4.2 0 7-.8 8.3-2.5 1.3-1.5 1.9-4.6 1.9-9.3s-.7-7.9-1.9-9.4c-1.3-1.7-4-2.5-8.3-2.5H217Zm32.4 0 12 23.8h11.2l12-23.8h-8.3l-9 17.5h-.6l-9-17.5h-8.3Zm44.7 13.7 4-8.3h1.1l4 8.3h-9ZM292.4 1l-11.8 23.8h8.5l2.3-4h14.5l2.3 4h8.5L305 1h-12.5Zm63.8 11.9c0 5.6.7 9.1 2.1 10.3 1.4 1.3 5.6 2 12.4 2s11-.7 12.6-1.8c1.4-1 2-3.5 2-7.8H378c0 1.5-.4 2.4-1.2 2.7-.8.4-2.8.6-6 .6-3.7 0-5.8-.2-6.4-.8-.6-.5-1-2.3-1-5.2s.4-4.7 1-5.3c.7-.5 2.7-.8 6.3-.8 3.2 0 5.3.2 6.2.7.7.4 1 1.2 1 2.6h7.4c0-4.2-.7-6.8-2-7.8-1.6-1.1-5.8-1.7-12.6-1.7s-11 .7-12.5 2c-1.4 1.2-2 4.6-2 10.3Zm34.3-12v23.9h25.7V19h-18.4v-3.3h17.5V10h-17.5V6.7h18.4V1h-25.7Zm-64 6v17.9h-7.2V1h12l12.5 17.6.3.5V1h7.3v23.7h-12L327 7.2l-.3-.4Zm-9.9 31.9h7.8c.4 0 1 0 1.3-.3.4-.3.5-1 .5-1.6s0-1.2-.6-1.6c-.3-.2-.8-.3-1.2-.3h-7.8v3.8Zm93-.7c1.1 0 4 0 5.1.5 1.2.5 1.5 1.9 1.5 3 0 1.4-.5 2.5-1.8 3-1.3.6-3.9.6-5.3.6s-4.4 0-5.6-1c-1-.6-1-2.2-1-3.2v-.3h2.2v.3c0 .5 0 1.5.6 1.8.6.4 3 .4 3.8.4 1 0 3.1 0 4-.3.7-.2.8-.7.8-1.2s0-1.1-.5-1.3c-.7-.3-3.1-.3-3.9-.3-1.5 0-4.2 0-5.5-1-1-.6-1.2-1.7-1.2-2.8 0-1.1.3-2.3 1.4-2.9 1.3-.6 4-.6 5.3-.6s4 0 5.3 1c.8.7 1 2 1 3v.3h-2.2V37c0-.6 0-1.4-.6-1.7-.7-.3-2.7-.3-3.5-.3h-3c-.8.1-1.5.5-1.5 1.4 0 .6.2 1.1.8 1.4.9.4 2.8.4 3.7.4Zm-23.1-3v2.8h9v2h-9V43h9.4v2h-11.6V33h11.6v2h-9.4Zm-20.2 4c0 .7 0 3 .6 3.6.6.5 3.2.5 4 .5s3.2 0 3.8-.3c.7-.3.7-1.5.7-2.1v-.2h2.2v.2c0 1.2-.1 3-1.2 3.7-1.2.7-4.2.7-5.5.7-1.4 0-4.4 0-5.6-1-1.1-1-1.2-3.8-1.2-5.2s0-4 1.2-5.1c1.1-1 4.2-1 5.6-1 1.3 0 4.4 0 5.5.7 1.1.7 1.3 2.5 1.3 3.7v.2h-2.2v-.2c0-.6-.1-1.8-.7-2-.7-.4-3-.4-3.9-.4-.7 0-3.4 0-4 .5-.6.5-.6 3-.6 3.6Zm-9 6h-2.1V33h2.2v12Zm-15-2 5.5-10.1h2.3l-6.6 12h-2.3l-6.6-12h2.4l5.4 10Zm-15.1-3.2.6.5c.4.5.6 1 .6 1.6v3h-2.2v-3c0-.4-.2-.6-.4-.8l-1.2-.3h-8V45h-2.2V33h10.7c1 0 1.8.3 2.4 1 .7.9.9 2 .9 3 0 .7-.1 1.6-.5 2.2l-.7.7ZM298 35v3h9v2h-9v3h9.3v2H296V33h11.5v2h-9.3Zm-15 3c1.2 0 4 0 5.2.6 1.1.5 1.4 1.9 1.4 3 0 1.4-.4 2.5-1.7 3-1.3.6-4 .6-5.3.6s-4.4 0-5.7-1c-.9-.6-1-2.2-1-3.2v-.3h2.2v.3c0 .5 0 1.5.6 1.8.7.4 3.1.4 3.9.4 1 0 3 0 4-.3.6-.2.8-.7.8-1.2s0-1.1-.5-1.3c-.8-.3-3.2-.3-4-.3-1.5 0-4.1 0-5.4-1-1-.6-1.2-1.8-1.2-2.8 0-1.1.3-2.3 1.4-2.9 1.3-.6 3.9-.6 5.3-.6s4 0 5.2 1c1 .7 1 2 1 3v.3h-2V37c0-.6-.2-1.4-.7-1.7-.7-.4-2.7-.4-3.5-.4l-3 .1c-.8.1-1.5.5-1.5 1.4 0 .6.2 1.1.8 1.4.8.4 2.8.4 3.7.4Zm-26-3v10h-2.2V35h-5.2v-2h12.6v2H257Zm-23.6 0v3h9v2h-9v3h9.4v2h-11.6V33h11.6v2h-9.4ZM215 35v3h9v2h-9v3h9.3v2h-11.5V33h11.5v2H215Zm-16.6 8h8.9v2h-11.1V33h2.2v10Zm-18-2.8v4.9h-2.1V33h11.2v2h-9v3.2h8.7v2h-8.8Z" style="fill-rule:evenodd;fill:#fff"/><path style="fill:#fff" d="M166 0h2.2v46.4H166z"/></g></svg>