<svg width="449" height="38" viewBox="0 0 449 38" fill="none" xmlns="http://www.w3.org/2000/svg">
<mask id="mask0_46_30" style="mask-type:luminance" maskUnits="userSpaceOnUse" x="64" y="4" width="37" height="30">
<path d="M84.9916 10.4655H100.439V4.38794H84.927C83.5317 4.3989 82.1587 4.73956 80.9201 5.38215C79.6814 6.02474 78.6121 6.95107 77.7993 8.08561C76.9865 9.22016 76.4532 10.5308 76.2429 11.9107C76.0327 13.2906 76.1514 14.7006 76.5894 16.0259C77.7528 19.5172 81.1136 22.0388 84.9916 22.0388H92.1012C93.6523 22.0388 94.8803 23.3319 94.8803 24.819C94.8803 26.306 93.5877 27.5991 92.1012 27.5991H64.8263V33.6121H92.1012C93.5019 33.6113 94.8825 33.2781 96.1295 32.6398C97.3765 32.0015 98.4543 31.0764 99.2745 29.9405C100.095 28.8045 100.634 27.4901 100.847 26.1052C101.061 24.7204 100.943 23.3046 100.503 21.9741C99.34 18.5474 95.9791 16.0259 92.1012 16.0259H84.9916C83.4404 16.0259 82.2124 14.7328 82.2124 13.2457C82.2124 11.7586 83.505 10.4655 84.9916 10.4655Z" fill="white"/>
</mask>
<g mask="url(#mask0_46_30)">
<path d="M64.7617 4.38794H100.891V33.6121H64.7617V4.38794Z" fill="url(#paint0_linear_46_30)"/>
</g>
<mask id="mask1_46_30" style="mask-type:luminance" maskUnits="userSpaceOnUse" x="0" y="4" width="79" height="30">
<path d="M32.3162 4.3879L5.81691 33.612H9.95339L36.4527 4.3879H32.3808M39.1672 4.3879L12.6679 33.612H17.9032L44.4671 4.3879H39.1672ZM48.0865 22.1034H41.1708L35.7417 28.1163H48.0219V33.6767H54.0973V4.3879H47.2463L36.7758 15.8965L20.6824 33.612H27.9858L35.9356 24.8836L48.1511 11.5V22.0388L48.0865 22.1034ZM3.10235 33.7413L29.6016 4.32324H26.5639L0 33.612H3.10235V33.7413ZM62.3703 33.7413V22.1034H78.2698C76.3022 20.6013 74.8919 18.4852 74.2626 16.0905H62.3703V10.4655H74.3272C74.3272 10.2069 74.4565 9.94824 74.5211 9.75428C75.2321 7.556 76.5894 5.74566 78.3344 4.3879H56.3594V33.612H62.4349L62.3703 33.7413Z" fill="white"/>
</mask>
<g mask="url(#mask1_46_30)">
<path d="M0 4.38794H78.2698V33.6121H0V4.38794Z" fill="url(#paint1_linear_46_30)"/>
</g>
<path fill-rule="evenodd" clip-rule="evenodd" d="M127.261 8.13794L129.846 13.5043H123.965L126.55 8.13794H127.197H127.261ZM133.078 20.0345H138.572L130.945 4.64656H122.802L115.175 20.0345H120.733L122.22 17.4483H131.592L133.013 20.0345H133.078ZM152.726 16.0259H144.97V8.52587H152.726C153.76 8.52587 154.471 8.78449 154.795 9.36639C155.182 9.88363 155.376 10.8535 155.376 12.2759C155.376 13.6983 155.182 14.6681 154.795 15.1854C154.471 15.7026 153.76 15.9612 152.726 15.9612V16.0259ZM140.252 4.64656V19.9698H153.502C156.216 19.9698 158.026 19.4526 158.866 18.3535C159.707 17.3836 160.094 15.3793 160.094 12.3405C160.094 9.30173 159.642 7.23277 158.866 6.26294C158.026 5.1638 156.281 4.64656 153.502 4.64656H140.252ZM161.193 4.64656L168.949 20.0345H176.188L183.944 4.64656H178.579L172.762 15.9612H172.375L166.558 4.64656H161.193ZM190.084 13.5043L192.669 8.13794H193.38L195.965 13.5043H190.148H190.084ZM188.985 4.64656L181.358 20.0345H186.852L188.339 17.4483H197.71L199.197 20.0345H204.691L197.129 4.64656H189.05H188.985ZM230.221 12.3405C230.221 15.9612 230.673 18.2241 231.578 19C232.483 19.8405 235.197 20.2931 239.592 20.2931C243.987 20.2931 246.702 19.8405 247.736 19.1293C248.641 18.4828 249.029 16.8664 249.029 14.0862H244.31C244.31 15.056 244.052 15.6379 243.535 15.8319C243.018 16.0905 241.725 16.2198 239.657 16.2198C237.265 16.2198 235.908 16.0905 235.52 15.7026C235.133 15.3793 234.874 14.2155 234.874 12.3405C234.874 10.4655 235.133 9.30173 235.52 8.9138C235.973 8.59053 237.265 8.39656 239.592 8.39656C241.661 8.39656 243.018 8.52587 243.599 8.84915C244.052 9.10777 244.246 9.62501 244.246 10.5302H249.029C249.029 7.81466 248.576 6.13363 247.736 5.48708C246.702 4.77587 243.987 4.38794 239.592 4.38794C235.197 4.38794 232.483 4.84053 231.513 5.68104C230.608 6.4569 230.221 8.65518 230.221 12.3405ZM252.389 4.5819V20.0345H269V16.2845H257.108V14.1509H268.418V10.4655H257.108V8.3319H269V4.64656H252.389V4.5819ZM211.025 8.46122V20.0345H206.371V4.64656H214.127L222.206 16.0259L222.4 16.3491V4.64656H227.118V19.9698H219.362L211.348 8.65518L211.154 8.39656L211.025 8.46122ZM204.626 29.0862H209.667C209.926 29.0862 210.314 29.0862 210.508 28.8923C210.766 28.6983 210.831 28.2457 210.831 27.8578C210.831 27.4698 210.831 27.0819 210.443 26.8233C210.249 26.694 209.926 26.6293 209.667 26.6293H204.626V29.0862ZM264.734 28.6336C265.445 28.6336 267.32 28.6336 268.031 28.9569C268.806 29.2802 269 30.1854 269 30.8966C269 31.8017 268.677 32.5129 267.837 32.8362C266.996 33.2241 265.316 33.2241 264.411 33.2241C263.506 33.2241 261.567 33.2241 260.792 32.5776C260.145 32.1897 260.145 31.1552 260.145 30.5086V30.3147H261.567V30.5086C261.567 30.8319 261.567 31.4785 261.955 31.6724C262.343 31.931 263.894 31.931 264.411 31.931C265.057 31.931 266.415 31.931 266.996 31.7371C267.449 31.6078 267.513 31.2845 267.513 30.9612C267.513 30.6379 267.513 30.25 267.19 30.1207C266.738 29.9267 265.187 29.9267 264.67 29.9267C263.7 29.9267 261.955 29.9267 261.115 29.2802C260.469 28.8922 260.339 28.181 260.339 27.4698C260.339 26.7586 260.533 25.9828 261.244 25.5948C262.084 25.2069 263.829 25.2069 264.67 25.2069C265.51 25.2069 267.255 25.2069 268.095 25.8535C268.612 26.306 268.741 27.1466 268.741 27.7931V27.9871H267.32V27.9224C267.32 27.5345 267.32 27.0173 266.932 26.8233C266.479 26.6293 265.187 26.6293 264.67 26.6293H262.731C262.214 26.694 261.761 26.9526 261.761 27.5345C261.761 27.9224 261.89 28.2457 262.278 28.4397C262.86 28.6983 264.088 28.6983 264.67 28.6983L264.734 28.6336ZM249.804 26.694V28.5043H255.621V29.7974H249.804V31.8017H255.88V33.0948H248.382V25.3362H255.88V26.6293H249.804V26.694ZM236.748 29.2802C236.748 29.7328 236.748 31.2198 237.136 31.6078C237.524 31.931 239.204 31.931 239.722 31.931C240.239 31.931 241.79 31.931 242.178 31.7371C242.63 31.5431 242.63 30.7673 242.63 30.3793V30.25H244.052V30.3793C244.052 31.1552 243.987 32.319 243.276 32.7716C242.501 33.2241 240.562 33.2241 239.722 33.2241C238.817 33.2241 236.878 33.2241 236.102 32.5776C235.391 31.931 235.327 30.1207 235.327 29.2155C235.327 28.3104 235.327 26.6293 236.102 25.9181C236.813 25.2716 238.817 25.2716 239.722 25.2716C240.562 25.2716 242.565 25.2716 243.276 25.7241C243.987 26.1767 244.117 27.3405 244.117 28.1164V28.2457H242.695V28.1164C242.695 27.7285 242.63 26.9526 242.242 26.8233C241.79 26.5647 240.303 26.5647 239.722 26.5647C239.269 26.5647 237.524 26.5647 237.136 26.8879C236.748 27.2112 236.748 28.8276 236.748 29.2155V29.2802ZM230.932 33.1595H229.574V25.3362H230.996V33.0948L230.932 33.1595ZM221.237 31.8664L224.791 25.3362H226.278L222.012 33.0948H220.526L216.26 25.3362H217.811L221.301 31.8017L221.237 31.8664ZM211.477 29.7974L211.865 30.1207C212.123 30.444 212.253 30.7673 212.253 31.1552V33.0948H210.831V31.1552C210.831 30.8966 210.702 30.7673 210.572 30.6379L209.797 30.444H204.626V33.0948H203.204V25.3362H210.12C210.766 25.3362 211.283 25.5302 211.671 25.9828C212.123 26.5647 212.253 27.2759 212.253 27.9224C212.253 28.375 212.188 28.9569 211.93 29.3448L211.477 29.7974ZM192.605 26.6293V28.569H198.421V29.8621H192.605V31.8017H198.615V33.0948H191.312V25.3362H198.745V26.6293H192.734H192.605ZM182.91 28.569C183.685 28.569 185.495 28.569 186.271 28.9569C186.982 29.2802 187.175 30.1854 187.175 30.8966C187.175 31.8017 186.917 32.5129 186.077 32.8362C185.236 33.2241 183.491 33.2241 182.651 33.2241C181.811 33.2241 179.807 33.2241 178.967 32.5776C178.385 32.1897 178.321 31.1552 178.321 30.5086V30.3147H179.743V30.5086C179.743 30.8319 179.743 31.4785 180.13 31.6724C180.583 31.931 182.134 31.931 182.651 31.931C183.297 31.931 184.59 31.931 185.236 31.7371C185.624 31.6078 185.753 31.2845 185.753 30.9612C185.753 30.6379 185.753 30.25 185.43 30.1207C184.913 29.9267 183.362 29.9267 182.845 29.9267C181.876 29.9267 180.195 29.9267 179.355 29.2802C178.709 28.8922 178.579 28.1164 178.579 27.4698C178.579 26.7586 178.773 25.9828 179.484 25.5948C180.324 25.2069 182.005 25.2069 182.91 25.2069C183.815 25.2069 185.495 25.2069 186.271 25.8535C186.917 26.306 186.917 27.1466 186.917 27.7931V27.9871H185.624V27.9224C185.624 27.5345 185.495 27.0173 185.172 26.8233C184.719 26.5647 183.427 26.5647 182.91 26.5647L180.971 26.6293C180.454 26.694 180.001 26.9526 180.001 27.5345C180.001 27.9224 180.13 28.2457 180.518 28.4397C181.035 28.6983 182.328 28.6983 182.91 28.6983V28.569ZM166.105 26.6293V33.0948H164.683V26.6293H161.322V25.3362H169.466V26.6293H166.105ZM150.852 26.6293V28.569H156.669V29.8621H150.852V31.8017H156.927V33.0948H149.43V25.3362H156.927V26.6293H150.852ZM138.96 26.6293V28.569H144.777V29.8621H138.96V31.8017H144.97V33.0948H137.538V25.3362H144.97V26.6293H138.96ZM128.231 31.8017H133.983V33.0948H126.809V25.3362H128.231V31.8017ZM116.597 29.9914V33.1595H115.24V25.3362H122.478V26.6293H116.661V28.6983H122.284V29.9914H116.597Z" fill="white"/>
<path d="M107.29 4H108.712V34H107.29V4Z" fill="white"/>
<rect x="291" width="1" height="38" fill="#D9D9D9"/>
<path d="M326.476 33.5923L333.161 4H341.86L335.175 33.5923H326.476ZM324.298 33.5923L330.983 4H325.246L318.553 33.5923H324.29H324.298ZM316.508 33.5923L323.193 4H320.685L314 33.5923H316.508Z" fill="#EF4123"/>
<path d="M355.888 4C361.845 4.03918 364.313 6.13165 363.177 11.1708C362.479 14.2585 361.335 16.9701 357.127 18.0438L357.111 18.1143C360.982 18.7334 361.805 21.2021 360.967 24.9089C359.854 29.8305 356.829 33.6393 349.533 33.5923H337.926L344.619 4H355.888ZM347.236 28.5296L348.929 28.5453C351.641 28.561 352.205 27.4638 352.856 24.5641C353.31 22.5422 353.435 20.5986 350.904 20.5751L349.039 20.5594L347.244 28.5296H347.236ZM350.113 15.7868H351.625C354.203 15.8181 354.83 14.235 355.238 12.4012C355.7 10.3479 355.426 9.20373 353.42 9.18805L351.594 9.17238L350.105 15.7868H350.113ZM360.081 33.5923H367.816L370.779 20.2303C371.139 18.6159 372.205 17.2601 374.83 17.2758H375.23L377.001 9.40749C373.529 9.38398 373.427 11.8369 371.868 13.9999H371.782L372.714 9.84635L365.379 9.79933L360.081 33.5923ZM390.763 33.5923H383.725L384.148 31.6409H384.062C382.431 33.1126 380.311 33.9254 378.114 33.9214C372.511 33.8822 372.659 30.4575 373.514 26.6723C374.509 22.2679 377.816 20.8181 380.849 19.8071C383.921 18.8353 386.797 18.3024 387.369 15.7711C387.652 14.525 387.456 13.8197 386.029 13.8118C384.65 13.804 383.929 14.4231 383.71 15.4106L383.294 17.2679H376.17L376.648 15.1363C377.424 11.6802 381.672 9.431 386.923 9.47018C393.819 9.5172 395.684 11.8291 394.54 16.8996L390.771 33.5923H390.763ZM386.037 21.6488L383.616 22.9184C382.605 23.4669 382.017 24.0861 381.813 25.003L381.108 28.1221C380.81 29.4465 381.311 30.003 382.377 30.0108C383.576 30.0186 384.36 29.1017 384.619 27.9654L386.045 21.6488H386.037ZM392.44 33.5923H400.175L403.796 17.503C403.921 16.9545 404.297 15.2617 406.037 15.2774C407.769 15.293 407.455 16.688 407.267 17.5266L403.655 33.5923H411.39L415.645 14.7131C416.194 11.884 414.869 9.6661 411.225 9.64259C408.294 9.61908 406.531 10.7163 404.705 12.6912H404.619L405.206 10.0815L397.824 10.0266L392.448 33.5923H392.44ZM446.726 10.0893L447.965 4.8699L440.402 4.88557L439.078 10.0344H437.103L438.255 4.88557H430.692L428.991 12.3698H428.905C428.153 10.5595 426.781 9.74447 424.023 9.72096C420.285 9.69745 417.965 11.884 417.126 15.63L414.548 27.0955C413.553 31.4998 415.057 33.9763 418.654 33.9998C421.147 34.0155 423.286 33.1534 424.626 31.3587H424.712L424.187 33.5844H431.836L436.084 14.572H438.051L434.752 29.2898C433.921 32.9653 436.476 33.5609 439.767 33.5844H443.451L444.524 28.8117H443.545C442.518 28.7961 442.792 27.5892 442.925 27.0014L445.692 14.6426L447.604 14.6582L448.631 10.105L446.719 10.0893H446.726ZM427.832 17.5187L426.013 25.5986C425.645 27.213 425.151 29.4152 423.2 29.4073C422.44 29.4073 421.758 29.0625 422.032 27.8556L424.712 15.9513C424.814 15.5433 425.051 15.1816 425.383 14.9243C425.716 14.6669 426.126 14.5291 426.546 14.5328C428.145 14.5407 428.153 16.0924 427.832 17.5187Z" fill="white"/>
<defs>
<linearGradient id="paint0_linear_46_30" x1="82.8587" y1="4.38794" x2="82.8587" y2="33.6121" gradientUnits="userSpaceOnUse">
<stop stop-color="#8B0100"/>
<stop offset="0.5" stop-color="#EF0000"/>
<stop offset="1" stop-color="#8B0100"/>
</linearGradient>
<linearGradient id="paint1_linear_46_30" x1="39.1026" y1="4.38794" x2="39.1673" y2="33.6121" gradientUnits="userSpaceOnUse">
<stop stop-color="#8B0100"/>
<stop offset="0.5" stop-color="#EF0000"/>
<stop offset="1" stop-color="#8B0100"/>
</linearGradient>
</defs>
</svg>
