<svg xmlns="http://www.w3.org/2000/svg" viewBox="0 0 171.8 38.29"><path d="M15.92 37.76 24.45 0h11.1l-8.53 37.76h-11.1Zm-2.78 0L21.67 0h-7.32L5.81 37.76h7.32Zm-9.94 0L11.73 0h-3.2L0 37.76h3.2Z" style="fill:#ef4123"/><path d="M53.45 0c7.6.05 10.75 2.72 9.3 9.15-.89 3.94-2.35 7.4-7.72 8.77l-.02.09c4.94.79 5.99 3.94 4.92 8.67-1.42 6.28-5.28 11.14-14.59 11.08H30.53L39.07 0h14.38ZM42.41 31.3l2.16.02c3.46.02 4.18-1.38 5.01-5.08.58-2.58.74-5.06-2.49-5.09l-2.38-.02-2.29 10.17Zm3.67-16.26h1.93c3.29.04 4.09-1.98 4.61-4.32.59-2.62.24-4.08-2.32-4.1l-2.33-.02-1.9 8.44ZM58.8 37.76h9.87l3.78-17.05c.46-2.06 1.82-3.79 5.17-3.77h.51L80.39 6.9c-4.43-.03-4.56 3.1-6.55 5.86h-.11l1.19-5.3-9.36-.06-6.76 30.36Zm39.15 0h-8.98l.54-2.49h-.11a11.3 11.3 0 0 1-7.59 2.91c-7.15-.05-6.96-4.42-5.87-9.25 1.27-5.62 5.49-7.47 9.36-8.76 3.92-1.24 7.59-1.92 8.32-5.15.36-1.59.11-2.49-1.71-2.5-1.76-.01-2.68.78-2.96 2.04l-.53 2.37h-9.09l.61-2.72c.99-4.41 6.41-7.28 13.11-7.23 8.8.06 11.18 3.01 9.72 9.48l-4.81 21.3Zm-6.03-15.24-3.09 1.62c-1.29.7-2.04 1.49-2.3 2.66l-.9 3.98c-.38 1.69.26 2.4 1.62 2.41 1.53.01 2.53-1.16 2.86-2.61l1.82-8.06Zm8.17 15.24h9.87l4.62-20.53c.16-.7.64-2.86 2.86-2.84 2.21.02 1.81 1.8 1.57 2.87l-4.61 20.5h9.87l5.43-24.09c.7-3.61-.99-6.44-5.64-6.47-3.74-.03-5.99 1.37-8.32 3.89h-.11l.75-3.33-9.42-.07-6.86 30.07Zm69.27-29.99 1.58-6.66-9.65.02-1.69 6.57h-2.52l1.47-6.57h-9.65l-2.17 9.55h-.11c-.96-2.31-2.71-3.35-6.23-3.38-4.77-.03-7.73 2.76-8.8 7.54l-3.29 14.63c-1.27 5.62.65 8.78 5.24 8.81 3.18.02 5.91-1.08 7.62-3.37h.11l-.67 2.84h9.76l5.42-24.26h2.51l-4.21 18.78c-1.06 4.69 2.2 5.45 6.4 5.48h4.7l1.37-6.09h-1.25c-1.31-.02-.96-1.56-.79-2.31l3.53-15.77 2.44.02 1.31-5.81-2.44-.02Zm-24.11 9.48-2.32 10.31c-.47 2.06-1.1 4.87-3.59 4.86-.97 0-1.84-.44-1.49-1.98l3.42-15.19a2.39 2.39 0 0 1 2.34-1.81c2.04.01 2.05 1.99 1.64 3.81"/></svg>