<?xml version="1.0" encoding="UTF-8"?><svg id="Layer_2" xmlns="http://www.w3.org/2000/svg" viewBox="0 0 990.49 195.6"><defs><style>.cls-1{fill:#231f20;stroke-width:0px;}</style></defs><g id="Layer_1-2"><path id="path21763" class="cls-1" d="M320.96,55.58h-79.65v85.98h79.51c26.41,0,35.63-8.67,35.63-29.99v-26c0-21.19-9.22-29.99-35.63-29.99M330.17,104.01c0,12.24-4.4,15.41-15.68,15.41h-46.77v-42.37h46.77c11.28,0,15.68,3.16,15.68,14.86v12.11ZM396.48,120.93h68.78v20.64h-95.2V55.58h94.1v19.95h-67.68v13.76h64.11v17.88h-64.11v13.76ZM776.71,54.62h-42.23c-23.8,0-37.83,5.92-37.83,31.09v25.72c0,25.17,13.76,31.09,37.83,31.09h42.23c23.8,0,37.83-5.92,37.83-31.09v-25.59c0-25.17-13.76-31.09-37.83-31.09M787.58,103.32c0,12.38-2.61,17.2-15.13,17.2h-33.7c-12.52,0-15.13-4.81-15.13-17.2v-9.35c0-10.73,2.61-17.2,16.51-17.2h30.26c13.76,0,16.51,6.6,16.51,17.2l.69,9.35ZM964.63,55.58v21.46h-37.01v64.52h-26.41v-64.52h-37.01v-21.46h100.42ZM657.31,55.58h-79.51v85.98h26.41v-22.15h41.27c8.25,0,10.87,2.89,10.87,11.97v10.32h26.41v-14.72c0-13.76-6.6-17.61-13.76-18.98,12.11-2.89,14.72-9.63,14.72-21.19v-5.5c0-15.41-5.5-25.59-25.72-25.59M657.99,89.01c0,6.19-2.61,9.08-9.77,9.08h-44.16v-21.05h41.27c8.25,0,12.11,1.38,12.11,8.94l.55,3.03ZM829.68,55.58h26.41v85.98h-26.41V55.58ZM470.63,55.58h100.42v21.46h-37.14v64.52h-26.28v-64.52h-37.14l.14-21.46Z"/><path id="polygon21765" class="cls-1" d="M969.31,56.96v-1.24h8.67v1.24h-3.58v9.63h-1.51v-9.63h-3.58Z"/><path id="polygon21767" class="cls-1" d="M984.99,64.94l3.44-9.22h2.06v10.87h-1.38v-9.08l-3.44,9.08h-1.24l-3.44-9.08v9.08h-1.38v-10.87h1.93l3.44,9.22Z"/><path id="path21769" class="cls-1" d="M168.94,142.94l-30.68-31.5h22.97v-13.76s.55-64.93-64.93-64.93c-14.39.2-28.33,5.02-39.76,13.76l9.63,9.9c21.95-16.94,53.49-12.88,70.43,9.07,6.81,8.83,10.49,19.67,10.46,30.82h-41.27l63.56,65.21c10.27-11.26,17.72-24.79,21.74-39.48l-22.15,20.91Z"/><path id="path21771" class="cls-1" d="M96.31,0c-22.95,0-45.15,8.19-62.59,23.11l11.01,11.28c14.62-11.68,32.88-17.87,51.59-17.47,43.64-1.91,80.57,31.93,82.48,75.58.07,1.59.09,3.18.06,4.76v13.76h13.76C200.74,58.47,164.73,9.27,112.17,1.13,106.92.32,101.62-.06,96.31,0"/><path id="path21775" class="cls-1" d="M55.04,83.51h-22.42v13.76s0,64.38,64.93,64.38c14.53-.71,28.5-5.85,40.03-14.72l-9.77-10.04c-21.95,16.94-53.49,12.88-70.43-9.07-6.81-8.83-10.49-19.67-10.46-30.82h41.68L25.19,31.78C14.67,43.33,7.11,57.25,3.18,72.37l21.74-20.22,30.13,31.37ZM149,159.31c-14.71,12.45-33.42,19.14-52.69,18.85-44.06.53-80.21-34.76-80.75-78.82,0-.51,0-1.01,0-1.52v-13.76H.97C.33,88.62.01,93.21.01,97.82c-.82,53.18,41.62,96.95,94.79,97.78,24.1.37,47.46-8.3,65.47-24.32l-11.28-11.97Z"/></g></svg>