<?xml version="1.0" encoding="UTF-8"?><svg id="Layer_2" xmlns="http://www.w3.org/2000/svg" viewBox="0 0 994.46 200"><defs><style>.cls-1{fill:#cc2229;}.cls-1,.cls-2{fill-rule:evenodd;}.cls-1,.cls-2,.cls-3{stroke-width:0px;}.cls-2,.cls-3{fill:#fff;}</style></defs><g id="Layer_1-2"><path class="cls-1" d="M497.23,0l413.23,27.38c46.96,1.19,84,39.42,84,86.24s-38.23,85.98-85.98,86.38H86.38C39.02,200,0,161.51,0,113.62S37.43,28.57,84.39,27.38L497.23,0Z"/><polygon class="cls-3" points="259.27 75.13 298.68 72.35 304.24 58.07 248.03 61.64 212.57 154.23 269.98 154.23 275.14 139.95 234.53 139.95 245.25 111.25 277.12 111.25 277.12 111.25 283.08 95.9 250.4 97.49 259.27 75.13"/><polygon class="cls-3" points="326.06 56.48 289.02 154.23 304.64 154.23 342.47 55.29 326.06 56.48"/><polygon class="cls-3" points="496.04 89.95 456.75 91.13 473.42 46.56 457.55 47.75 416.94 154.23 432.41 154.23 450.67 106.09 490.09 104.9 471.43 154.23 486.91 154.23 528.18 44.97 513.1 44.18 496.04 89.95"/><path class="cls-3" d="M383.87,93.52l-5.29,12.96h21.16l-10.32,26.59c-.92,2.38-6.75,6.87-10.05,6.87h-22.49c-4.63,0-8.6-3.97-6.48-9.25l21.03-55.16c1.59-4.76,5.95-8.07,10.32-9.13,8.07-1.85,17.85-2.91,26.32-1.58,5.29.79,4.23,7.4,3.57,10.72h15.21c1.45-4.1,3.97-8.73,3.97-13.09,0-5.95-4.76-11.11-10.72-11.51-12.43-.66-25.92-1.19-37.96.79-9.53,1.72-19.05,5.03-23.41,14.68l-25.65,68.12h0c-3.18,8.33,6.35,19.7,14.95,19.7h37.7c6.88,0,12.57-4.36,15.21-11.11l19.18-49.6h-36.24Z"/><polygon class="cls-3" points="111.91 85.19 141.41 83.2 146.56 69.18 100.8 72.35 69.71 154.23 85.58 154.23 98.81 119.58 123.41 118.39 128.58 104.9 103.97 105.68 111.91 85.19"/><path class="cls-3" d="M220.65,77.38c-.27-6.35-3.44-12.43-13.23-11.77l-20.9,1.45v14.95l11.38-.79c4.36,0,4.76,2.38,4.76,5.95,0,3.18-1.19,6.35-2.38,8.73-1.19,2.77-4.76,5.03-8.33,5.03h0s-5.42.13-5.42.13v52.12l.26,1.05h15.08l-6.75-39.41h4.76c4.76,0,10.32-3.17,12.3-8.33,3.57-8.2,7.54-18.13,8.47-26.99v-2.12Z"/><polygon class="cls-3" points="186.51 82.01 186.51 82.01 186.51 67.06 167.2 68.38 134.53 154.23 150.93 154.23 165.22 116.4 179.9 115.61 186.51 153.18 186.51 101.06 170.38 101.72 177.91 82.67 186.51 82.01"/><polygon class="cls-3" points="612.58 50.93 545.78 46.56 540.62 59.26 565.22 60.85 529.38 154.23 546.18 154.23 546.18 154.23 581.23 61.64 607.81 63.63 612.58 50.93"/><path class="cls-3" d="M931.89,82.67h0c0-1.98-.79-3.97-1.59-5.16-.39-.79-2.38-1.99-3.18-2.38-.79-.79-2.77-1.59-3.17-1.59l-6.75-1.19-14.94-1.06v13.22h-.01s0,0,0,0l7.81.53,3.57.93c.39,0,1.85,1.19,2.77,1.98.27.4.8,1.58.8,2.38,0,1.58-.53,3.57-.8,5.16,0,1.19-1.59,2.78-2.12,3.98,0,.65-.65,1.85-1.19,2.24-.66.4-2.38,1.2-3.04,1.2-.53,0-1.72.39-2.12.39h-2.65l-3.04-.13h0s-14.95-1.06-14.95-1.06l7.14-18.26,7.8.66v-13.22h.01s0,0,0,0h0l-18.92-1.32-31.87,84.26h16.39l14.29-38.22,12.3.8,7.81,36.5h0s.13.94.13.94h15.21l-7.28-34.66c.94-.39,2.12-.79,2.51-.79,1.45-.39,3.57-1.2,4.76-1.98,1.98-1.2,4.37-3.18,6.35-4.76,1.19-1.2,2.77-3.18,3.57-4.76.79-1.98,2.38-4.36,2.77-6.34.8-1.86,1.59-4.64,1.59-7.01.4-3.74.4-7.52,0-11.26Z"/><polygon class="cls-3" points="796.97 63.23 780.17 62.44 756.76 123.68 746.44 60.05 729.25 58.86 692.99 154.23 709.8 154.23 735.99 85.58 746.05 154.23 762.71 154.23 762.71 154.23 796.97 63.23"/><polygon class="cls-3" points="826.07 79.1 859.8 81.61 859.8 81.61 864.7 67.99 814.82 64.82 780.96 154.23 832.03 154.23 837.97 139.15 803.32 139.15 812.05 115.21 841.94 115.21 846.71 103.31 816.81 103.31 826.07 79.1"/><polygon class="cls-3" points="692.6 56.08 655.57 154.23 671.57 154.23 708.61 57.27 692.6 56.08"/><polygon class="cls-3" points="643.66 52.51 628.18 51.72 589.17 154.23 641.68 154.23 646.83 140.35 610.2 140.35 643.66 52.51"/><path class="cls-2" d="M497.36,31.35l411.78,27.12c29.89.79,54.23,25.14,54.23,55.16s-24.74,55.03-55.04,55.03h-410.98v11.91h410.98c36.92.05,66.88-29.84,66.93-66.75,0-.06,0-.12,0-.18,0-36.51-29.1-66.27-65.74-67.07l-412.17-27.51v12.3h0ZM497.23,31.35h.13v-12.3h-.13L85.19,46.56c-36.5.72-65.69,30.56-65.61,67.07,0,37.03,29.76,66.93,66.8,66.93h410.98v-11.91H86.38c-30.29,0-54.89-24.73-54.89-55.03s23.81-54.77,54.1-55.16l411.65-27.12h0Z"/></g></svg>