<?xml version="1.0" encoding="UTF-8"?><svg id="Layer_2" xmlns="http://www.w3.org/2000/svg" viewBox="0 0 300 121.69"><defs><style>.cls-1,.cls-2{stroke-width:0px;}.cls-2{fill:#c83b41;}</style></defs><g id="Layer_1-2"><path class="cls-1" d="M0,66.1V0h66.18v66.1H0ZM64.62,1.55H1.58v63h41.68c-1.01-.23-1.12-.96-1-1.78.54-3.79,1.07-7.58,1.69-11.36.12-.7.07-1.2-.4-1.7-.99-1.05-1.97-2.12-2.97-3.17-2.39-2.5-4.33-5.25-4.92-8.77-.54-3.19-1.15-6.37-1.66-9.56-.41-2.56-1.17-4.92-3.23-6.66-1.6-1.35-3.55-1.69-5.55-1.91-4.68-.52-8.37,1.9-9.59,6.32-1.31,4.76.47,9.23,4.54,11.37,3.49,1.84,8.14,1.35,10.68-1.1.21-.2.55-.25.83-.38.11.3.32.59.32.89.03,1.79-.02,3.58.03,5.37.02.74-.23,1.03-.93,1.21-7.46,1.82-13.93.2-19.35-5.37-2.74-2.82-4.2-6.06-4-10.04.15-3.07.76-6.02,1.88-8.87.77-1.95,1.75-3.78,3.28-5.23,5.46-5.15,11.77-6.83,18.82-3.93,5.16,2.13,10.12,4.76,15.19,7.12,3.3,1.53,6.63,3.01,10.23,3.67,6.44,1.19,7.32-4,7.42-4.04l.05-15.08ZM45.44,47.11c2.03-1.88,4-3.69,6.01-5.54-.2-.08-.3-.12-.4-.16-2.86-1.08-5.24-2.78-7.04-5.28-1.49-2.07-2.07-4.45-2.53-6.88-.44-2.28-.79-4.58-1.24-6.86-.08-.42-.46-1.08-.72-1.09-.45-.02-1.13.26-1.35.63-.49.83-.96,1.77-1.09,2.72-.59,4.27.2,8.42,1.43,12.49,1.27,4.23,3.61,7.73,6.94,9.98ZM54.29,28.98c0-1.78-1.43-3.19-3.2-3.16-1.7.03-3.12,1.49-3.11,3.19.02,1.71,1.47,3.13,3.18,3.11,1.75-.02,3.13-1.4,3.13-3.14Z"/><path class="cls-2" d="M216.23,14.65c-.26,1.67-.52,3.35-.78,5.02-.93,6.02-1.87,12.05-2.8,18.07-.83,5.35-1.66,10.7-2.49,16.05-.4,2.61-.79,5.21-1.23,7.81-.04.23-.4.59-.61.59-3.7.04-7.39.03-11.21.03-2.18-15.2-4.36-30.36-6.54-45.53-.07,0-.13,0-.2.01-.21,15.12-.43,30.24-.64,45.46-.42.02-.75.05-1.08.05-2.85,0-5.69,0-8.54,0q-1.22,0-1.22-1.19c0-7.22,0-14.44,0-21.66,0-11.2,0-22.4,0-33.61,0-1.16,0-1.16,1.15-1.16,5.61,0,11.21,0,16.82,0,.31,0,.61,0,1.01,0,.17,1.48.35,2.88.5,4.28.44,4.09.88,8.18,1.31,12.27.36,3.41.72,6.83,1.09,10.24.43,3.98.87,7.96,1.3,11.94.15,1.41.28,2.82.43,4.24.06.53.05,1.05.88,1.04.77,0,.85-.36.91-.98.55-5.88,1.12-11.75,1.7-17.63.66-6.69,1.33-13.39,2-20.08.17-1.75.34-3.49.51-5.28.37-.02.65-.04.93-.04,5.69,0,11.38.01,17.07-.02.78,0,1.02.2,1.02.99-.02,18.57-.02,37.13,0,55.7,0,.73-.19.99-.96.98-2.96-.04-5.92-.02-8.88-.02q-1.22,0-1.22-1.19c0-10.55,0-21.1,0-31.64,0-4.63,0-9.27,0-13.9,0-.28,0-.56,0-.84-.07,0-.15,0-.22,0ZM299.82,61.08c-.03-3.04,0-6.08-.12-9.12-.19-4.57-.46-9.13-.77-13.69-.19-2.82-1.52-4.95-4.17-6.15-.41-.18-.83-.32-1.36-.52.45-.21.8-.38,1.15-.54,2.64-1.22,4.21-3.25,4.75-6.12.52-2.73.59-5.47.5-8.23-.08-2.34-.46-4.62-1.33-6.81-.84-2.12-2.25-3.62-4.54-4.08-2.03-.41-4.07-.89-6.12-.99-4.77-.24-9.55-.29-14.32-.37-1.32-.02-2.64.12-3.96.18v57.52h11.53c0-1.74.02-3.41,0-5.08-.09-6.37-.18-12.73-.3-19.09,0-.46.08-.71.57-.73,1.16-.04,2.34-.2,3.48-.09,1.76.17,2.44.89,2.74,2.51.09.5.19,1.01.2,1.52.12,5.14.24,10.28.33,15.42.03,1.83,0,3.67,0,5.56h11.76c0-.43,0-.76,0-1.1ZM280.49,15.9c-.01-.57.18-.8.74-.87,4.37-.52,6.72,1.81,6.44,6.02-.11,1.71-.49,3.36-1.91,4.58-1.42,1.22-3.09,1.3-4.81,1.07-.18-.02-.42-.49-.43-.75-.04-1.7-.02-3.4-.02-5.11,0-1.65.02-3.29-.01-4.94ZM143.17,62.17c.03-.28.07-.5.07-.72.08-5.54.17-11.08.23-16.62.05-3.84.1-7.67.08-11.51-.03-7.27-.11-14.55-.19-21.82-.01-1.14-.25-2.28-1.26-2.95-1.17-.77-2.38-1.59-3.69-2.02-4.71-1.54-9.58-1.86-14.48-1.2-2.63.35-5.15,1.16-7.29,2.85-1.14.9-1.89,2.01-1.92,3.53-.06,3.12-.2,6.25-.21,9.37-.02,4.32.02,8.64.05,12.96.05,7.93.11,15.86.17,23.79,0,1.44,0,2.88,0,4.31h11.26v-23.77h6v23.79h11.17ZM127.35,27.5c-.16,0-.45-.35-.46-.55-.16-3.12-.37-6.25.62-9.28.19-.58.49-1.16.88-1.63.98-1.17,2.45-1.04,3.12.33.45.93.74,1.96.9,2.98.42,2.67.36,5.36.04,8.17-1.71,0-3.41.02-5.11-.03ZM262.73,55.36c.05-5.74.17-11.48.16-17.22-.01-8.78-.11-17.56-.15-26.34,0-1.89-.79-3.28-2.45-4.16-.8-.42-1.62-.85-2.47-1.12-4.73-1.47-9.58-1.84-14.48-1.19-2.66.36-5.21,1.16-7.36,2.88-1.08.86-1.85,1.92-1.88,3.38-.07,2.87-.21,5.73-.21,8.6-.01,6.88.02,13.76.06,20.63.04,5.97.11,11.93.17,17.9.01,1.13,0,2.26,0,3.43h11.26v-23.86c1.69,0,3.28,0,4.88,0q1.11,0,1.11,1.11c0,7.22,0,14.44,0,21.66,0,.36.03.72.05,1.11h11.34c0-2.35-.02-4.59,0-6.83ZM246.72,18.1c.1-.6.4-1.19.73-1.71,1.04-1.6,2.79-1.51,3.56.25.43.99.75,2.11.81,3.18.13,2.37.07,4.76.04,7.14,0,.19-.34.53-.53.54-1.5.05-3.01.02-4.52.03-.54,0-.59-.35-.6-.73-.01-1.02,0-2.04,0-3.06-.1,0-.19-.02-.28-.02.26-1.87.47-3.76.79-5.62ZM110.14,61.22c-3.22-9.53-6.45-19.05-9.64-28.59-.15-.44-.16-1.02,0-1.44,2.7-7.25,5.44-14.49,8.16-21.73.6-1.58,1.19-3.16,1.83-4.87-.43,0-.74,0-1.04,0-3.22,0-6.43.04-9.65-.03-.89-.02-1.27.27-1.59,1.08-3.03,7.61-6.1,15.2-9.17,22.8-.08.19-.19.36-.29.54l-.18-.05V4.67h-11.12v57.5h11.15c-.11-8.94-.21-17.81-.32-26.68.29.2.41.43.5.68,3.09,8.43,6.17,16.86,9.23,25.31.21.58.49.78,1.1.77,3.5-.03,7-.01,10.5-.01.25,0,.49-.03.81-.06-.11-.36-.2-.66-.29-.95ZM162.43,50.55c0-14.95,0-29.9.01-44.86,0-.81-.15-1.13-1.07-1.12-3.38.06-6.77.02-10.16.03-.3,0-.6.03-.88.04v57.52h24.25v-10.14h-12.16v-1.48Z"/><path class="cls-1" d="M300,98.74c-.05.33-.13.65-.14.98-.08,7.13-.16,14.27-.23,21.4,0,.14-.02.28-.03.49h-10.01v-20.95h-5.16v20.96h-10.06c0-1.59,0-3.17,0-4.75-.05-10.74-.12-21.49-.16-32.23,0-2.39.15-4.77.14-7.16-.01-1.84.94-3.04,2.36-3.98,2.02-1.34,4.29-1.95,6.66-2.19,4.17-.42,8.29-.07,12.29,1.26.56.19,1.1.45,1.63.72,1.5.76,2.44,1.89,2.44,3.67,0,1.56.08,3.12.14,4.68.01.3.09.59.14.88v16.21ZM290.2,87.56s-.07,0-.11,0c0-.91.12-1.83-.03-2.71-.2-1.24-.46-2.51-.94-3.66-.48-1.13-1.82-1.24-2.57-.26-.48.63-.94,1.44-1.01,2.2-.22,2.42-.27,4.85-.34,7.28,0,.19.39.54.62.55,1.19.06,2.38,0,3.58.03.53.01.69-.21.69-.71.01-.91.07-1.81.11-2.72ZM270.93,72.21h-9.36c-.18,12.76-.36,25.48-.54,38.19-.05,0-.1,0-.15,0-1.83-12.72-3.65-25.44-5.49-38.21-.33-.01-.61-.04-.89-.04-2.79,0-5.58.02-8.36-.02-.71-.01-.89.25-.99.9-.91,6.03-1.85,12.06-2.79,18.09-.83,5.36-1.66,10.71-2.49,16.07-.23,1.5-.47,3-.71,4.51-.08,0-.15-.01-.23-.02v-39.47h-9.53c.88,16.42,1.75,32.77,2.62,49.13h13.69c1.48-10.72,2.94-21.4,4.41-32.08.04,0,.09,0,.13.01,1.45,10.68,2.9,21.36,4.36,32.12,3.94-.15,7.82-.3,11.8-.46,1.51-16.26,3.01-32.47,4.51-48.74ZM210.69,121.64h-10.06c0-1.36,0-2.66,0-3.96-.06-11.03-.12-22.06-.16-33.09,0-2.22.18-4.43.11-6.65-.07-2.34,1.12-3.77,3.02-4.82,2.66-1.47,5.57-1.97,8.55-1.97,3.62,0,7.22.32,10.61,1.75.65.27,1.25.66,1.83,1.07,1.23.86,1.44,2.19,1.45,3.55.05,6.82.11,13.64.11,20.46,0,4.69-.08,9.38-.11,14.07-.02,3.18,0,6.36,0,9.58h-10.21v-20.99h-5.14v20.98ZM216.5,87.28c-.06-.89-.03-1.92-.21-2.92-.19-1.07-.44-2.18-.9-3.16-.55-1.17-1.82-1.25-2.63-.23-.39.49-.69,1.12-.86,1.73-.71,2.55-.62,5.16-.41,7.76.02.18.37.48.58.49,1.19.05,2.38,0,3.57.03.52.01.69-.19.7-.7.01-.96.09-1.92.15-3.01ZM143.94,96.71c0,4.15.21,8.31-.05,12.44-.46,7.24-6.83,13.58-14.86,12.4-5.43-.8-8.9-4.14-10.67-9.24-.45-1.29-.7-2.72-.71-4.09-.06-7.9-.13-15.81.02-23.71.14-7.51,6.52-13.36,13.9-13.04,5.56.24,10.57,4.53,11.98,10.35.3,1.26.43,2.58.45,3.88.06,3.67.02,7.33.02,11-.03,0-.06,0-.08,0ZM127.68,96.79c0,.34,0,.68,0,1.02,0,3.72-.02,7.44,0,11.16.02,2.69,2.71,4.3,4.97,3.01,1.3-.74,1.72-1.95,1.72-3.38-.01-7.87,0-15.73,0-23.6,0-.31,0-.63-.05-.93-.2-1.2-.83-2.11-1.96-2.6-2.27-.99-4.65.6-4.67,3.14-.03,4.06,0,8.12,0,12.18ZM153.28,121.63h10.57v-40.18h6.8v-9.94h-25.08v9.98h7.71v40.14ZM190.43,81.46h6.81v-9.97h-25.03v10.02h7.66v40.14h10.55v-40.19Z"/></g></svg>