<?xml version="1.0" encoding="UTF-8"?><svg id="Layer_2" xmlns="http://www.w3.org/2000/svg" viewBox="0 0 604.26 120"><defs><style>.cls-1{fill-rule:evenodd;stroke-width:0px;}</style></defs><g id="Layer_1-2"><path class="cls-1" d="M37.07,60.37v-28.72h13.5c7.93.12,14.26,6.65,14.15,14.58-.12,7.76-6.38,14.03-14.15,14.15h-13.5,0ZM0,4.04v111.51h37.07v-27.02l23.86-.02c23.32,0,42.24-18.91,42.24-42.24S84.26,4.04,60.94,4.04H0s0,0,0,0ZM137.09,4.04l-61.51,111.51h41.68l15.06-27.3h34.94v27.3h36.5V4.04h-66.67ZM167.26,60.37h-19.56l19.56-35.47v35.47ZM419.83,4.04l-36.8,66.72c-5.94,11.16-19.81,15.38-30.96,9.44-11.16-5.94-15.38-19.81-9.44-30.96,3.98-7.46,11.74-12.13,20.2-12.13,9.53,0,18.05,5.9,21.42,14.82l19.63-35.68C392.76,5.79,378.07-.02,362.82,0,343.59,0,326.49,9.04,315.51,23.11c-1.98,2.53-3.75,5.22-5.31,8.03l-21.81,39.63c-5.95,11.15-19.81,15.38-30.96,9.43-7.46-3.98-12.12-11.74-12.12-20.19,0-12.64,10.26-22.88,22.9-22.87,9.52,0,18.03,5.9,21.4,14.8l19.64-35.68C298.14,5.79,283.45-.02,268.19,0,235.06,0,208.19,26.86,208.19,60s26.86,60,60,60c19.22,0,36.34-9.04,47.32-23.1,10.97,14.06,28.08,23.1,47.31,23.1,22.93,0,42.84-12.86,52.95-31.76h34.24v27.3h36.5V4.04h-66.68ZM450.37,60.37h-19.56l19.56-35.47v35.47ZM535.4,60.37v-28.72h13.5c7.93,0,14.36,6.43,14.36,14.36,0,7.93-6.42,14.36-14.35,14.36h-13.51ZM604.26,115.55l-21.7-39.28c10.42-7.48,16.59-19.53,16.58-32.36,0-22.02-17.84-39.87-39.87-39.87h-60.94v111.51h37.07v-27.02h12.22s14.92,27.02,14.92,27.02h41.7,0Z"/></g></svg>