<?xml version="1.0" encoding="UTF-8"?><svg id="Layer_2" xmlns="http://www.w3.org/2000/svg" viewBox="0 0 200 200"><defs><style>.cls-1{stroke-width:0px;}</style></defs><g id="Layer_1-2"><path class="cls-1" d="M93.91,93.54h-4.35v-2.86h17.27v2.86h-4.3v12.92h3.99c3.69,0,6.12-2.43,6.12-5.75h2.85v8.65h-25.92v-2.89h4.35v-12.92ZM115.02,93.55h-4.29v-2.87h18.73v2.87h-4.53l6.32,11.52,6.24-11.52h-3.73v-2.87h12.92v2.87h-4.3l-8.56,15.83h-10.08s-8.71-15.83-8.71-15.83ZM158.19,90.28c8.67,0,13.33,4.33,13.33,9.76s-4.39,9.89-13.28,9.89-13.33-4.38-13.33-9.89,4.61-9.75,13.27-9.75h0ZM48.17,105.08l6.23-11.52h-3.72v-2.87h12.9v2.87h-4.29l-8.57,15.83h-10.08s-8.71-15.83-8.71-15.83h-4.28v-2.87h18.72v2.87h-4.52l6.32,11.53ZM75.15,90.29c8.67,0,13.33,4.33,13.33,9.76s-4.39,9.89-13.28,9.89-13.32-4.38-13.32-9.89,4.6-9.75,13.27-9.75h0ZM70.56,99.93c.06-3.6,1.78-6.74,4.75-6.69,2.97.06,4.53,3.25,4.47,6.86-.07,3.39-1.47,6.92-4.73,6.87-3.17-.06-4.56-3.56-4.5-7.03h0ZM153.6,99.93c.06-3.6,1.78-6.74,4.75-6.69,2.97.06,4.53,3.25,4.48,6.86-.07,3.39-1.47,6.92-4.72,6.87-3.17-.06-4.56-3.56-4.5-7.03ZM26.88,81.92c8.1-32.86,37.76-57.22,73.12-57.22s65.02,24.37,73.12,57.22H26.88ZM173.12,118.1c-8.1,32.85-37.76,57.22-73.12,57.22s-65.02-24.37-73.12-57.22h146.23ZM180.19,40.26l4.73-4.74c3.37,4.43,6.41,9.13,9.06,14.07h3.74V2.36h-47.22v3.7c4.91,2.64,9.58,5.67,13.98,9.02l-4.74,4.73C142.49,6.92,121.53-.03,100,0,44.77,0,0,44.78,0,100s44.77,100,100,100,100-44.77,100-100c0-22.4-7.37-43.08-19.81-59.75h0Z"/></g></svg>